<?xml version="1.0" encoding="utf-8"?>
<!-- Generator: Adobe Illustrator 19.1.0, SVG Export Plug-In . SVG Version: 6.00 Build 0)  -->
<svg version="1.1" id="Layer_1" xmlns="http://www.w3.org/2000/svg" xmlns:xlink="http://www.w3.org/1999/xlink" x="0px" y="0px"
	 viewBox="-450 251.1 58.9 58.9" style="enable-background:new -450 251.1 58.9 58.9;" xml:space="preserve">
<style type="text/css">
	.st0{fill:#ffffff;}
</style>
<g id="Facebook_6_">
	<path class="st0" d="M-420.6,310c-16.2,0-29.4-13.2-29.4-29.5c0-16.3,13.2-29.4,29.4-29.4c16.2,0,29.4,13.2,29.4,29.4
		C-391.2,296.7-404.3,310-420.6,310z M-420.6,253.3c-15,0-27.2,12.2-27.2,27.2s12.2,27.2,27.2,27.2s27.2-12.2,27.2-27.2
		S-405.6,253.3-420.6,253.3z"/>
	<path id="Facebook_1_" class="st0" d="M-407.1,292.1c0,0.8-0.7,1.5-1.5,1.5h-7v-10.5h3.6l0.5-4.1h-4.1v-2.6c0-1.2,0.3-2,2-2h2.2
		v-3.7c-0.4-0.1-1.6-0.1-3.2-0.1c-3.1,0-5.3,1.9-5.3,5.4v3.1h-3.6v4h3.6v10.6H-433c-0.8,0-1.5-0.7-1.5-1.5v-24.4
		c0-0.8,0.7-1.5,1.5-1.5h24.4c0.8,0,1.5,0.7,1.5,1.5V292.1L-407.1,292.1z"/>
</g>
</svg>
