<?xml version="1.0" encoding="utf-8"?>
<!-- Generator: Adobe Illustrator 19.1.0, SVG Export Plug-In . SVG Version: 6.00 Build 0)  -->
<svg version="1.1" id="Layer_1" xmlns="http://www.w3.org/2000/svg" xmlns:xlink="http://www.w3.org/1999/xlink" x="0px" y="0px"
	 viewBox="-450 251.1 58.9 58.9" style="enable-background:new -450 251.1 58.9 58.9;" xml:space="preserve">
<style type="text/css">
	.st0{fill:#ffffff;}
</style>
<g id="Google_x2B__5_">
	<path class="st0" d="M-420.6,310c-16.2,0-29.4-13.2-29.4-29.5c0-16.3,13.2-29.4,29.4-29.4c16.2,0,29.4,13.2,29.4,29.4
		C-391.2,296.7-404.3,310-420.6,310z M-420.6,253.3c-15,0-27.2,12.2-27.2,27.2s12.2,27.2,27.2,27.2s27.2-12.2,27.2-27.2
		S-405.6,253.3-420.6,253.3z"/>
	<path class="st0" d="M-426.3,278.4v3.8c0,0,3.7,0,5.1,0c-0.8,2.5-2.1,3.8-5.1,3.8c-3.1,0-5.6-2.5-5.6-5.7c0-3.2,2.5-5.7,5.6-5.7
		c1.6,0,2.8,0.6,3.7,1.4c0.8-0.8,0.7-0.9,2.7-2.8c-1.7-1.6-3.9-2.5-6.4-2.5c-5.3,0-9.5,4.2-9.5,9.5c0,5.3,4.2,9.5,9.5,9.5
		c7.9,0,9.8-6.9,9.2-11.5L-426.3,278.4L-426.3,278.4z"/>
	<polygon class="st0" points="-409.1,278.6 -409.1,275.2 -411.4,275.2 -411.4,278.6 -414.8,278.6 -414.8,281 -411.4,281 
		-411.4,284.3 -409.1,284.3 -409.1,281 -405.7,281 -405.7,278.6 	"/>
</g>
</svg>
