<?xml version="1.0" encoding="utf-8"?>
<!-- Generator: Adobe Illustrator 19.1.0, SVG Export Plug-In . SVG Version: 6.00 Build 0)  -->
<svg version="1.1" id="Layer_1" xmlns="http://www.w3.org/2000/svg" xmlns:xlink="http://www.w3.org/1999/xlink" x="0px" y="0px"
	 viewBox="-450 251.1 58.9 58.9" style="enable-background:new -450 251.1 58.9 58.9;" xml:space="preserve">
<style type="text/css">
	.st0{fill:#FFFFFF;}
</style>
<g id="Google_x2B__5_">
	<path class="st0" d="M-420.6,310c-16.2,0-29.4-13.2-29.4-29.5c0-16.3,13.2-29.4,29.4-29.4c16.2,0,29.4,13.2,29.4,29.4
		C-391.2,296.7-404.3,310-420.6,310z M-420.6,253.3c-15,0-27.2,12.2-27.2,27.2s12.2,27.2,27.2,27.2s27.2-12.2,27.2-27.2
		S-405.6,253.3-420.6,253.3z"/>
	<g>
		<g>
			<path class="st0" d="M-404.5,291.2c-0.2,0-0.5-0.1-0.7-0.2c-0.6-0.4-0.7-1.1-0.3-1.7c1.1-1.6,1.7-3.6,1.7-5.6
				c0-2-0.6-3.9-1.7-5.6c-0.4-0.6-0.2-1.3,0.3-1.7c0.6-0.4,1.3-0.2,1.7,0.3c1.4,2,2.1,4.4,2.1,6.9c0,2.5-0.7,4.9-2.1,6.9
				C-403.8,291-404.2,291.2-404.5,291.2L-404.5,291.2z"/>
		</g>
		<g>
			<path class="st0" d="M-408,289.3c-0.2,0-0.5-0.1-0.7-0.2c-0.6-0.4-0.7-1.1-0.3-1.7c0.7-1.1,1.1-2.3,1.1-3.6
				c0-1.3-0.4-2.6-1.1-3.6c-0.4-0.6-0.2-1.3,0.3-1.7c0.6-0.4,1.3-0.2,1.7,0.3c1,1.5,1.5,3.2,1.5,5c0,1.8-0.5,3.5-1.5,5
				C-407.2,289.1-407.6,289.3-408,289.3L-408,289.3z"/>
		</g>
		<path class="st0" d="M-413.6,278.5c-0.5-4.8-4.5-8.6-9.5-8.6c-4.1,0-7.7,2.6-9,6.4c-3.1,0.5-5.5,3.1-5.5,6.3
			c0,3.5,2.9,6.4,6.4,6.4h16.4c2.9,0,5.4-2.4,5.4-5.3C-409.4,281.2-411.2,279.1-413.6,278.5z M-414.7,286.7h-16.4c-2.2,0-4-1.8-4-4
			c0-2.2,1.8-4,4-4c1.1,0,2.1,0.4,2.8,1.2c0.5,0.5,1.2,0.5,1.7,0c0.5-0.5,0.5-1.2,0-1.7c-0.8-0.8-1.8-1.4-2.9-1.7
			c1.1-2.5,3.7-4.2,6.5-4.2c3.9,0,7.1,3.2,7.1,7.1c0,0.8-0.1,1.5-0.4,2.2c-0.2,0.6,0.1,1.3,0.8,1.5c0.1,0,0.3,0.1,0.4,0.1
			c0.5,0,1-0.3,1.1-0.8c0.2-0.5,0.3-1,0.3-1.4c1.1,0.4,1.9,1.5,1.9,2.7C-411.8,285.4-413.1,286.7-414.7,286.7z"/>
	</g>
</g>
</svg>
