<?xml version="1.0" encoding="utf-8"?>
<!-- Generator: Adobe Illustrator 19.1.0, SVG Export Plug-In . SVG Version: 6.00 Build 0)  -->
<svg version="1.1" id="Layer_1" xmlns="http://www.w3.org/2000/svg" xmlns:xlink="http://www.w3.org/1999/xlink" x="0px" y="0px"
	 viewBox="-450 251.1 58.9 58.9" style="enable-background:new -450 251.1 58.9 58.9;" xml:space="preserve">
<style type="text/css">
	.st0{fill:#FFFFFF;}
</style>
<g id="Google_x2B__5_">
	<path class="st0" d="M-420.6,310c-16.2,0-29.4-13.2-29.4-29.5c0-16.3,13.2-29.4,29.4-29.4c16.2,0,29.4,13.2,29.4,29.4
		C-391.2,296.7-404.3,310-420.6,310z M-420.6,253.3c-15,0-27.2,12.2-27.2,27.2s12.2,27.2,27.2,27.2s27.2-12.2,27.2-27.2
		S-405.6,253.3-420.6,253.3z"/>
	<g>
		<path class="st0" d="M-435.9,284.6l0.5-2.3l-0.5-2.3c0-0.1-0.1-0.1-0.3-0.1c-0.2,0-0.3,0.1-0.3,0.1l-0.5,2.3l0.5,2.3
			c0,0.1,0.1,0.1,0.3,0.1C-436.1,284.7-435.9,284.7-435.9,284.6z M-432.6,285.8l0.4-3.5l-0.4-5.4c0-0.1-0.2-0.2-0.4-0.2
			c-0.2,0-0.4,0.1-0.4,0.2l-0.4,5.4l0.4,3.5c0,0.1,0.2,0.2,0.4,0.2C-432.8,286.1-432.6,286-432.6,285.8z M-429.3,285.8l0.4-3.4
			l-0.4-7.2c0-0.2-0.2-0.3-0.5-0.3c-0.2,0-0.4,0.1-0.5,0.3l-0.3,7.2l0.3,3.4c0,0.2,0.2,0.3,0.5,0.3
			C-429.5,286.1-429.3,285.9-429.3,285.8z M-426,285.7l0.3-3.4l-0.3-7.2c0-0.2-0.2-0.4-0.5-0.4c-0.3,0-0.5,0.2-0.5,0.4l-0.3,7.2
			l0.3,3.4c0,0.2,0.2,0.4,0.5,0.4C-426.3,286.1-426.1,285.9-426,285.7z M-422.8,285.7l0.2-3.3l-0.2-8.3c0-0.2-0.3-0.4-0.6-0.4
			c-0.3,0-0.6,0.2-0.6,0.4l-0.2,8.3c0,0,0.2,3.3,0.2,3.3c0,0.2,0.3,0.4,0.6,0.4C-423,286.1-422.8,285.9-422.8,285.7z M-420.5,286.1
			c0,0,11.4,0,11.5,0c2.3,0,4.1-1.8,4.1-4c0-2.2-1.9-4-4.1-4c-0.6,0-1.1,0.1-1.6,0.3c-0.3-3.6-3.5-6.4-7.3-6.4
			c-0.9,0-1.8,0.2-2.7,0.5c-0.3,0.1-0.4,0.2-0.4,0.5v12.7C-420.9,285.9-420.7,286.1-420.5,286.1z"/>
	</g>
</g>
</svg>
