<?xml version="1.0" encoding="utf-8"?>
<!-- Generator: Adobe Illustrator 19.1.0, SVG Export Plug-In . SVG Version: 6.00 Build 0)  -->
<svg version="1.1" id="Layer_1" xmlns="http://www.w3.org/2000/svg" xmlns:xlink="http://www.w3.org/1999/xlink" x="0px" y="0px"
	 viewBox="0 0 144.3 54.2" style="enable-background:new 0 0 144.3 54.2;" xml:space="preserve">
<style type="text/css">
	.st0{fill:#4F7FC6;}
	.st1{fill:#F9F9F9;}
</style>
<path class="st0" d="M48.2,1.5H31.5c-2.3,0-4.2,1.9-4.2,4.2v16.7c0,2.3,1.9,4.2,4.2,4.2h8.3V15.6h-3.1v-3.1h3.1v-2.3
	c0-2.2,1.7-3.9,3.9-3.9h3.9v3.1h-3.9c-0.4,0-0.8,0.3-0.8,0.8v2.3h4.3l-0.8,3.1H43v10.9h5.2c2.3,0,4.2-1.9,4.2-4.2V5.7
	C52.3,3.4,50.5,1.5,48.2,1.5z"/>
<path class="st0" d="M110.7,13c-0.6,0-1.2,0.1-1.7,0.3c-0.3-4-3.6-7.2-7.6-7.2c-1,0-1.9,0.2-2.8,0.5c-0.3,0.1-0.4,0.3-0.4,0.5v14.2
	c0,0.3,0.2,0.5,0.5,0.5c0,0,12,0,12.1,0c2.4,0,4.4-2,4.4-4.5S113.1,13,110.7,13L110.7,13z M94.5,21.9h1.1l0.5-7.9l-0.5-7.9h-1.1
	L94,14L94.5,21.9z M91.4,21.9h-1.1l-0.5-5.7l0.5-5.5h1.1l0.5,5.6L91.4,21.9z M86.1,21.9h1.1l0.5-4.5l-0.5-4.5h-1.1l-0.5,4.5
	L86.1,21.9z M81.9,19.7h1.1l0.5-2.2l-0.5-2.2h-1.1l-0.5,2.2L81.9,19.7z"/>
<path class="st0" d="M12.8,1.5C5.9,1.5,0.3,7.1,0.3,14s5.6,12.5,12.5,12.5S25.3,20.9,25.3,14S19.7,1.5,12.8,1.5z M19,10.9
	c0,0.1,0,0.3,0,0.4c0,4.2-3.2,9.1-9.1,9.1c-1.8,0-3.5-0.5-4.9-1.4c0.3,0,0.5,0,0.8,0c1.5,0,2.9-0.5,4-1.4c-1.4,0-2.6-1-3-2.2
	c0.2,0,0.4,0.1,0.6,0.1c0.3,0,0.6,0,0.8-0.1c-1.5-0.3-2.6-1.6-2.6-3.1c0,0,0,0,0,0c0.4,0.2,0.9,0.4,1.5,0.4C6.2,12,5.7,11,5.7,9.9
	c0-0.6,0.2-1.1,0.4-1.6c1.6,1.9,3.9,3.2,6.6,3.3c-0.1-0.2-0.1-0.5-0.1-0.7c0-1.8,1.4-3.2,3.2-3.2c0.9,0,1.8,0.4,2.3,1
	c0.7-0.1,1.4-0.4,2-0.8c-0.2,0.7-0.7,1.4-1.4,1.8c0.6-0.1,1.3-0.2,1.8-0.5C20.2,9.8,19.7,10.4,19,10.9L19,10.9z"/>
<path class="st0" d="M67.1,1.3C60,1.3,54.3,7,54.3,14S60,26.8,67.1,26.8S79.8,21.1,79.8,14S74.1,1.3,67.1,1.3z M74.6,12.2
	c-0.8,4.8-5.6,8.8-7,9.7s-2.7-0.4-3.2-1.3c-0.5-1.1-2.2-7.1-2.6-7.6c-0.4-0.5-1.7,0.5-1.7,0.5l-0.6-0.8c0,0,2.6-3.1,4.5-3.5
	c2.1-0.4,2.1,3.2,2.6,5.2c0.5,1.9,0.8,3,1.2,3c0.4,0,1.2-1.1,2.1-2.7c0.9-1.7,0-3.1-1.8-2.1C68.9,8.4,75.4,7.4,74.6,12.2L74.6,12.2z
	"/>
<path class="st0" d="M138.2,4.4h-16.1c-2.7,0-4.8,2.2-4.8,4.8v9.6c0,2.7,2.2,4.8,4.8,4.8h16.1c2.7,0,4.8-2.2,4.8-4.8V9.2
	C143,6.6,140.9,4.4,138.2,4.4z M127,20.5V7.6l8,6.4L127,20.5z"/>
<g>
	<path class="st0" d="M48.2,28.5H31.5c-2.3,0-4.2,1.9-4.2,4.2v16.7c0,2.3,1.9,4.2,4.2,4.2h8.3V42.6h-3.1v-3.1h3.1v-2.3
		c0-2.2,1.7-3.9,3.9-3.9h3.9v3.1h-3.9c-0.4,0-0.8,0.3-0.8,0.8v2.3h4.3l-0.8,3.1H43v10.9h5.2c2.3,0,4.2-1.9,4.2-4.2V32.7
		C52.3,30.4,50.5,28.5,48.2,28.5z"/>
	<path class="st0" d="M48.2,28.5H31.5c-2.3,0-4.2,1.9-4.2,4.2v16.7c0,2.3,1.9,4.2,4.2,4.2h8.3V42.6h-3.1v-3.1h3.1v-2.3
		c0-2.2,1.7-3.9,3.9-3.9h3.9v3.1h-3.9c-0.4,0-0.8,0.3-0.8,0.8v2.3h4.3l-0.8,3.1H43v10.9h5.2c2.3,0,4.2-1.9,4.2-4.2V32.7
		C52.3,30.4,50.5,28.5,48.2,28.5z"/>
	<path class="st0" d="M48.2,28.5H31.5c-2.3,0-4.2,1.9-4.2,4.2v16.7c0,2.3,1.9,4.2,4.2,4.2h8.3V42.6h-3.1v-3.1h3.1v-2.3
		c0-2.2,1.7-3.9,3.9-3.9h3.9v3.1h-3.9c-0.4,0-0.8,0.3-0.8,0.8v2.3h4.3l-0.8,3.1H43v10.9h5.2c2.3,0,4.2-1.9,4.2-4.2V32.7
		C52.3,30.4,50.5,28.5,48.2,28.5z"/>
	<path class="st1" d="M48.2,28.5H31.5c-2.3,0-4.2,1.9-4.2,4.2v16.7c0,2.3,1.9,4.2,4.2,4.2h8.3V42.6h-3.1v-3.1h3.1v-2.3
		c0-2.2,1.7-3.9,3.9-3.9h3.9v3.1h-3.9c-0.4,0-0.8,0.3-0.8,0.8v2.3h4.3l-0.8,3.1H43v10.9h5.2c2.3,0,4.2-1.9,4.2-4.2V32.7
		C52.3,30.4,50.5,28.5,48.2,28.5z"/>
</g>
<g>
	<path class="st0" d="M110.7,40c-0.6,0-1.2,0.1-1.7,0.3c-0.3-4-3.6-7.2-7.6-7.2c-1,0-1.9,0.2-2.8,0.5c-0.3,0.1-0.4,0.3-0.4,0.5v14.2
		c0,0.3,0.2,0.5,0.5,0.5c0,0,12,0,12.1,0c2.4,0,4.4-2,4.4-4.5C115.1,42,113.1,40,110.7,40L110.7,40z M94.5,48.9h1.1l0.5-7.9
		l-0.5-7.9h-1.1L94,41L94.5,48.9z M91.4,48.9h-1.1l-0.5-5.7l0.5-5.5h1.1l0.5,5.6L91.4,48.9z M86.1,48.9h1.1l0.5-4.5l-0.5-4.5h-1.1
		l-0.5,4.5L86.1,48.9z M81.9,46.7h1.1l0.5-2.2l-0.5-2.2h-1.1l-0.5,2.2L81.9,46.7z"/>
	<path class="st0" d="M110.7,40c-0.6,0-1.2,0.1-1.7,0.3c-0.3-4-3.6-7.2-7.6-7.2c-1,0-1.9,0.2-2.8,0.5c-0.3,0.1-0.4,0.3-0.4,0.5v14.2
		c0,0.3,0.2,0.5,0.5,0.5c0,0,12,0,12.1,0c2.4,0,4.4-2,4.4-4.5C115.1,42,113.1,40,110.7,40L110.7,40z M94.5,48.9h1.1l0.5-7.9
		l-0.5-7.9h-1.1L94,41L94.5,48.9z M91.4,48.9h-1.1l-0.5-5.7l0.5-5.5h1.1l0.5,5.6L91.4,48.9z M86.1,48.9h1.1l0.5-4.5l-0.5-4.5h-1.1
		l-0.5,4.5L86.1,48.9z M81.9,46.7h1.1l0.5-2.2l-0.5-2.2h-1.1l-0.5,2.2L81.9,46.7z"/>
	<path class="st0" d="M110.7,40c-0.6,0-1.2,0.1-1.7,0.3c-0.3-4-3.6-7.2-7.6-7.2c-1,0-1.9,0.2-2.8,0.5c-0.3,0.1-0.4,0.3-0.4,0.5v14.2
		c0,0.3,0.2,0.5,0.5,0.5c0,0,12,0,12.1,0c2.4,0,4.4-2,4.4-4.5C115.1,42,113.1,40,110.7,40L110.7,40z M94.5,48.9h1.1l0.5-7.9
		l-0.5-7.9h-1.1L94,41L94.5,48.9z M91.4,48.9h-1.1l-0.5-5.7l0.5-5.5h1.1l0.5,5.6L91.4,48.9z M86.1,48.9h1.1l0.5-4.5l-0.5-4.5h-1.1
		l-0.5,4.5L86.1,48.9z M81.9,46.7h1.1l0.5-2.2l-0.5-2.2h-1.1l-0.5,2.2L81.9,46.7z"/>
	<path class="st1" d="M110.7,40c-0.6,0-1.2,0.1-1.7,0.3c-0.3-4-3.6-7.2-7.6-7.2c-1,0-1.9,0.2-2.8,0.5c-0.3,0.1-0.4,0.3-0.4,0.5v14.2
		c0,0.3,0.2,0.5,0.5,0.5c0,0,12,0,12.1,0c2.4,0,4.4-2,4.4-4.5C115.1,42,113.1,40,110.7,40L110.7,40z M94.5,48.9h1.1l0.5-7.9
		l-0.5-7.9h-1.1L94,41L94.5,48.9z M91.4,48.9h-1.1l-0.5-5.7l0.5-5.5h1.1l0.5,5.6L91.4,48.9z M86.1,48.9h1.1l0.5-4.5l-0.5-4.5h-1.1
		l-0.5,4.5L86.1,48.9z M81.9,46.7h1.1l0.5-2.2l-0.5-2.2h-1.1l-0.5,2.2L81.9,46.7z"/>
</g>
<g>
	<path class="st0" d="M12.8,28.5C5.9,28.5,0.3,34.1,0.3,41s5.6,12.5,12.5,12.5S25.3,47.9,25.3,41S19.7,28.5,12.8,28.5z M19,37.9
		c0,0.1,0,0.3,0,0.4c0,4.2-3.2,9.1-9.1,9.1c-1.8,0-3.5-0.5-4.9-1.4c0.3,0,0.5,0,0.8,0c1.5,0,2.9-0.5,4-1.4c-1.4,0-2.6-1-3-2.2
		c0.2,0,0.4,0.1,0.6,0.1c0.3,0,0.6,0,0.8-0.1c-1.5-0.3-2.6-1.6-2.6-3.1c0,0,0,0,0,0c0.4,0.2,0.9,0.4,1.5,0.4C6.2,39,5.7,38,5.7,36.9
		c0-0.6,0.2-1.1,0.4-1.6c1.6,1.9,3.9,3.2,6.6,3.3c-0.1-0.2-0.1-0.5-0.1-0.7c0-1.8,1.4-3.2,3.2-3.2c0.9,0,1.8,0.4,2.3,1
		c0.7-0.1,1.4-0.4,2-0.8c-0.2,0.7-0.7,1.4-1.4,1.8c0.6-0.1,1.3-0.2,1.8-0.5C20.2,36.8,19.7,37.4,19,37.9L19,37.9z"/>
	<path class="st0" d="M12.8,28.5C5.9,28.5,0.3,34.1,0.3,41s5.6,12.5,12.5,12.5S25.3,47.9,25.3,41S19.7,28.5,12.8,28.5z M19,37.9
		c0,0.1,0,0.3,0,0.4c0,4.2-3.2,9.1-9.1,9.1c-1.8,0-3.5-0.5-4.9-1.4c0.3,0,0.5,0,0.8,0c1.5,0,2.9-0.5,4-1.4c-1.4,0-2.6-1-3-2.2
		c0.2,0,0.4,0.1,0.6,0.1c0.3,0,0.6,0,0.8-0.1c-1.5-0.3-2.6-1.6-2.6-3.1c0,0,0,0,0,0c0.4,0.2,0.9,0.4,1.5,0.4C6.2,39,5.7,38,5.7,36.9
		c0-0.6,0.2-1.1,0.4-1.6c1.6,1.9,3.9,3.2,6.6,3.3c-0.1-0.2-0.1-0.5-0.1-0.7c0-1.8,1.4-3.2,3.2-3.2c0.9,0,1.8,0.4,2.3,1
		c0.7-0.1,1.4-0.4,2-0.8c-0.2,0.7-0.7,1.4-1.4,1.8c0.6-0.1,1.3-0.2,1.8-0.5C20.2,36.8,19.7,37.4,19,37.9L19,37.9z"/>
	<path class="st0" d="M12.8,28.5C5.9,28.5,0.3,34.1,0.3,41s5.6,12.5,12.5,12.5S25.3,47.9,25.3,41S19.7,28.5,12.8,28.5z M19,37.9
		c0,0.1,0,0.3,0,0.4c0,4.2-3.2,9.1-9.1,9.1c-1.8,0-3.5-0.5-4.9-1.4c0.3,0,0.5,0,0.8,0c1.5,0,2.9-0.5,4-1.4c-1.4,0-2.6-1-3-2.2
		c0.2,0,0.4,0.1,0.6,0.1c0.3,0,0.6,0,0.8-0.1c-1.5-0.3-2.6-1.6-2.6-3.1c0,0,0,0,0,0c0.4,0.2,0.9,0.4,1.5,0.4C6.2,39,5.7,38,5.7,36.9
		c0-0.6,0.2-1.1,0.4-1.6c1.6,1.9,3.9,3.2,6.6,3.3c-0.1-0.2-0.1-0.5-0.1-0.7c0-1.8,1.4-3.2,3.2-3.2c0.9,0,1.8,0.4,2.3,1
		c0.7-0.1,1.4-0.4,2-0.8c-0.2,0.7-0.7,1.4-1.4,1.8c0.6-0.1,1.3-0.2,1.8-0.5C20.2,36.8,19.7,37.4,19,37.9L19,37.9z"/>
	<path class="st1" d="M12.8,28.5C5.9,28.5,0.3,34.1,0.3,41s5.6,12.5,12.5,12.5S25.3,47.9,25.3,41S19.7,28.5,12.8,28.5z M19,37.9
		c0,0.1,0,0.3,0,0.4c0,4.2-3.2,9.1-9.1,9.1c-1.8,0-3.5-0.5-4.9-1.4c0.3,0,0.5,0,0.8,0c1.5,0,2.9-0.5,4-1.4c-1.4,0-2.6-1-3-2.2
		c0.2,0,0.4,0.1,0.6,0.1c0.3,0,0.6,0,0.8-0.1c-1.5-0.3-2.6-1.6-2.6-3.1c0,0,0,0,0,0c0.4,0.2,0.9,0.4,1.5,0.4C6.2,39,5.7,38,5.7,36.9
		c0-0.6,0.2-1.1,0.4-1.6c1.6,1.9,3.9,3.2,6.6,3.3c-0.1-0.2-0.1-0.5-0.1-0.7c0-1.8,1.4-3.2,3.2-3.2c0.9,0,1.8,0.4,2.3,1
		c0.7-0.1,1.4-0.4,2-0.8c-0.2,0.7-0.7,1.4-1.4,1.8c0.6-0.1,1.3-0.2,1.8-0.5C20.2,36.8,19.7,37.4,19,37.9L19,37.9z"/>
</g>
<g>
	<path class="st0" d="M67.1,28.3c-7,0-12.7,5.7-12.7,12.7S60,53.8,67.1,53.8S79.8,48.1,79.8,41S74.1,28.3,67.1,28.3z M74.6,39.2
		c-0.8,4.8-5.6,8.8-7,9.7c-1.4,0.9-2.7-0.4-3.2-1.3c-0.5-1.1-2.2-7.1-2.6-7.6c-0.4-0.5-1.7,0.5-1.7,0.5l-0.6-0.8
		c0,0,2.6-3.1,4.5-3.5c2.1-0.4,2.1,3.2,2.6,5.2c0.5,1.9,0.8,3,1.2,3c0.4,0,1.2-1.1,2.1-2.7c0.9-1.7,0-3.1-1.8-2.1
		C68.9,35.4,75.4,34.4,74.6,39.2L74.6,39.2z"/>
	<path class="st0" d="M67.1,28.3c-7,0-12.7,5.7-12.7,12.7S60,53.8,67.1,53.8S79.8,48.1,79.8,41S74.1,28.3,67.1,28.3z M74.6,39.2
		c-0.8,4.8-5.6,8.8-7,9.7c-1.4,0.9-2.7-0.4-3.2-1.3c-0.5-1.1-2.2-7.1-2.6-7.6c-0.4-0.5-1.7,0.5-1.7,0.5l-0.6-0.8
		c0,0,2.6-3.1,4.5-3.5c2.1-0.4,2.1,3.2,2.6,5.2c0.5,1.9,0.8,3,1.2,3c0.4,0,1.2-1.1,2.1-2.7c0.9-1.7,0-3.1-1.8-2.1
		C68.9,35.4,75.4,34.4,74.6,39.2L74.6,39.2z"/>
	<path class="st0" d="M67.1,28.3c-7,0-12.7,5.7-12.7,12.7S60,53.8,67.1,53.8S79.8,48.1,79.8,41S74.1,28.3,67.1,28.3z M74.6,39.2
		c-0.8,4.8-5.6,8.8-7,9.7c-1.4,0.9-2.7-0.4-3.2-1.3c-0.5-1.1-2.2-7.1-2.6-7.6c-0.4-0.5-1.7,0.5-1.7,0.5l-0.6-0.8
		c0,0,2.6-3.1,4.5-3.5c2.1-0.4,2.1,3.2,2.6,5.2c0.5,1.9,0.8,3,1.2,3c0.4,0,1.2-1.1,2.1-2.7c0.9-1.7,0-3.1-1.8-2.1
		C68.9,35.4,75.4,34.4,74.6,39.2L74.6,39.2z"/>
	<path class="st1" d="M67.1,28.3c-7,0-12.7,5.7-12.7,12.7S60,53.8,67.1,53.8S79.8,48.1,79.8,41S74.1,28.3,67.1,28.3z M74.6,39.2
		c-0.8,4.8-5.6,8.8-7,9.7c-1.4,0.9-2.7-0.4-3.2-1.3c-0.5-1.1-2.2-7.1-2.6-7.6c-0.4-0.5-1.7,0.5-1.7,0.5l-0.6-0.8
		c0,0,2.6-3.1,4.5-3.5c2.1-0.4,2.1,3.2,2.6,5.2c0.5,1.9,0.8,3,1.2,3c0.4,0,1.2-1.1,2.1-2.7c0.9-1.7,0-3.1-1.8-2.1
		C68.9,35.4,75.4,34.4,74.6,39.2L74.6,39.2z"/>
</g>
<g>
	<path class="st0" d="M138.2,31.4h-16.1c-2.7,0-4.8,2.2-4.8,4.8v9.6c0,2.7,2.2,4.8,4.8,4.8h16.1c2.7,0,4.8-2.2,4.8-4.8v-9.6
		C143,33.6,140.9,31.4,138.2,31.4z M127,47.5V34.6l8,6.4L127,47.5z"/>
	<path class="st0" d="M138.2,31.4h-16.1c-2.7,0-4.8,2.2-4.8,4.8v9.6c0,2.7,2.2,4.8,4.8,4.8h16.1c2.7,0,4.8-2.2,4.8-4.8v-9.6
		C143,33.6,140.9,31.4,138.2,31.4z M127,47.5V34.6l8,6.4L127,47.5z"/>
	<path class="st0" d="M138.2,31.4h-16.1c-2.7,0-4.8,2.2-4.8,4.8v9.6c0,2.7,2.2,4.8,4.8,4.8h16.1c2.7,0,4.8-2.2,4.8-4.8v-9.6
		C143,33.6,140.9,31.4,138.2,31.4z M127,47.5V34.6l8,6.4L127,47.5z"/>
	<path class="st1" d="M138.2,31.4h-16.1c-2.7,0-4.8,2.2-4.8,4.8v9.6c0,2.7,2.2,4.8,4.8,4.8h16.1c2.7,0,4.8-2.2,4.8-4.8v-9.6
		C143,33.6,140.9,31.4,138.2,31.4z M127,47.5V34.6l8,6.4L127,47.5z"/>
</g>
</svg>
