<?xml version="1.0" encoding="utf-8"?>
<!-- Generator: Adobe Illustrator 19.1.0, SVG Export Plug-In . SVG Version: 6.00 Build 0)  -->
<svg version="1.1" id="Layer_1" xmlns="http://www.w3.org/2000/svg" xmlns:xlink="http://www.w3.org/1999/xlink" x="0px" y="0px"
	 viewBox="-113.5 359.3 391.2 76.3" style="enable-background:new -113.5 359.3 391.2 76.3;" xml:space="preserve">
<style type="text/css">
	.st0{display:none;}
	.st1{display:inline;}
	.st2{display:inline;fill:#231F20;}
	.st3{fill:#FFFFFF;}
	.st4{fill:#FFFEF3;}
</style>
<g id="Layer_1_1_" class="st0">
	<g id="_x35_uNvYg_1_" class="st1">
		
			<image style="overflow:visible;enable-background:new    ;" width="1625" height="292" id="_x35_uNvYg_2_" xlink:href="8D187D264AAF5ABB.jpeg"  transform="matrix(0.2391 0 0 0.2367 -111 362.9)">
		</image>
	</g>
</g>
<g id="Layer_3" class="st0">
	<rect x="-115.2" y="359.3" class="st2" width="394.3" height="76.3"/>
</g>
<g id="Layer_2">
	<g>
		<path class="st3" d="M268.5,369.3v57h-373.4v-57H268.5 M270.5,367.3h-377.4v61h377.3v-61H270.5z"/>
	</g>
	<g>
		<path class="st4" d="M-56,404.2v4.2c-2.7,1.5-5.7,2.3-9.2,2.3c-2.8,0-5.2-0.6-7.2-1.8c-2-1.2-3.5-2.8-4.7-4.9
			c-1.1-2.1-1.7-4.4-1.7-6.8c0-3.9,1.3-7.1,3.9-9.8c2.6-2.6,5.9-4,9.7-4c2.7,0,5.6,0.7,8.8,2.2v4.1c-3-1.8-5.8-2.7-8.7-2.7
			c-2.9,0-5.3,1-7.2,2.9c-1.7,1.9-2.7,4.3-2.7,7.2c0,2.9,0.9,5.3,2.8,7.2c1.9,1.9,4.3,2.8,7.2,2.8C-61.9,407.1-58.9,406.1-56,404.2z
			"/>
		<path class="st4" d="M-38.1,383.6h2.5l11.3,26.8H-28l-3.4-7.9H-42l-3.2,7.9h-3.7L-38.1,383.6z M-32.8,399.1l-4.1-9.6l-3.8,9.6
			H-32.8z"/>
		<path class="st4" d="M3.1,383.7h3.4v26.6H2.9v-20.7l-7.8,10.3h-0.7l-7.9-10.3v20.7h-3.6v-26.6h3.4l8.4,10.9L3.1,383.7z"/>
		<path class="st4" d="M25,410.3h-8.6v-26.6H23c2.1,0,3.7,0.3,4.9,0.9c1.2,0.6,2.1,1.4,2.7,2.4c0.6,1,0.9,2.2,0.9,3.6
			c0,2.6-1.3,4.5-3.9,5.6c1.8,0.4,3.3,1.2,4.4,2.4c1.1,1.2,1.6,2.7,1.6,4.4c0,1.4-0.3,2.6-1,3.6c-0.7,1.1-1.6,1.9-2.9,2.6
			C28.5,410,26.9,410.3,25,410.3z M23.1,387.1H20v8h2.4c1.9,0,3.3-0.4,4.1-1.2c0.8-0.8,1.2-1.8,1.2-3
			C27.8,388.4,26.2,387.1,23.1,387.1z M23.4,398.5H20v8.4h3.6c2,0,3.3-0.2,4-0.5c0.7-0.3,1.3-0.8,1.7-1.5c0.4-0.7,0.6-1.4,0.6-2.2
			c0-0.8-0.2-1.6-0.7-2.2c-0.5-0.6-1.1-1.2-1.9-1.5C26.5,398.7,25.2,398.5,23.4,398.5z"/>
		<path class="st4" d="M41.8,410.3v-26.6h6.3c2.6,0,4.6,0.7,6.1,2c1.5,1.3,2.3,3.1,2.3,5.4c0,1.5-0.4,2.9-1.1,4
			c-0.7,1.1-1.8,2-3.2,2.5c0.8,0.6,1.6,1.3,2.4,2.3s1.9,2.6,3.3,5c0.9,1.5,1.6,2.6,2.1,3.4l1.3,1.9H57l-1.1-1.8
			c0-0.1-0.1-0.2-0.2-0.3l-0.7-1l-1.1-1.9l-1.2-2.1c-0.7-1.1-1.4-2-2.1-2.6c-0.6-0.6-1.2-1.1-1.7-1.4c-0.5-0.3-1.3-0.4-2.5-0.4h-0.9
			v11.6H41.8z M46.5,387h-1.1v8.4h1.4c1.8,0,3.1-0.2,3.8-0.5c0.7-0.3,1.2-0.8,1.6-1.5c0.4-0.7,0.6-1.4,0.6-2.3
			c0-0.8-0.2-1.6-0.6-2.3c-0.4-0.7-1-1.2-1.8-1.4C49.6,387.1,48.3,387,46.5,387z"/>
		<path class="st4" d="M68.6,383.7h3.6v26.6h-3.6V383.7z"/>
		<path class="st4" d="M90.3,383.6h2.5l11.3,26.8h-3.7l-3.4-7.9H86.2l-3.2,7.9h-3.7L90.3,383.6z M95.6,399.1l-4.1-9.6l-3.8,9.6H95.6
			z"/>
		<path class="st4" d="M131.5,383.7h3.4v26.6h-3.1l-16.9-20.5v20.5h-3.4v-26.6h2.9l17,20.7v-20.7H131.5z"/>
		<path class="st4" d="M159.5,383.7h3.6v23.2h11.4v3.5h-15V383.7z"/>
		<path class="st4" d="M182.1,383.7h3.6v26.6h-3.6V383.7z"/>
		<path class="st4" d="M215.9,383.7h3.4v26.6h-3.1l-16.9-20.5v20.5h-3.4v-26.6h2.9l17,20.7v-20.7H215.9z"/>
		<path class="st4" d="M229.2,383.7h14.3v3.4h-10.7v8.1h10.3v3.4h-10.3v8.3h11.1v3.4h-14.7L229.2,383.7L229.2,383.7z"/>
	</g>
</g>
</svg>
