<svg id="Layer_1" data-name="Layer 1" xmlns="http://www.w3.org/2000/svg" viewBox="0 0 208.75 208.75"><defs><style>.cls-1{fill:#d4222d;}.cls-2{fill:#bf1025;}.cls-3{fill:#fff;}.cls-4{fill:#d52028;}</style></defs><title>award</title><circle class="cls-1" cx="104.37" cy="104.37" r="104.37"/><path class="cls-2" d="M689,1562.5v60.44l48,62.57-19,13.22,19.29,19c0.54,0.1,1,.2,1.59.29l24.39,1a104.39,104.39,0,0,0,93.43-129.78l-26.85-26.67Z" transform="translate(-651.14 -1510.61)"/><path id="lieferheld_award" data-name="lieferheld award" class="cls-3" d="M794.73,1562.17v-11.71H717.14v11.71H682.27v38.29a44.8,44.8,0,0,0,40,44.48,38.92,38.92,0,0,0,22,17.74v12.41a11.62,11.62,0,0,1-11,11.16H717.14v11.64h77.59v-11.64H778.6a11.62,11.62,0,0,1-11-11.18v-12.39a38.92,38.92,0,0,0,22-17.73,44.8,44.8,0,0,0,40.13-44.49v-38.29h-35Zm-100.82,38.29v-26.65h23.23v52h0a39.14,39.14,0,0,0,.57,6.4A33.15,33.15,0,0,1,693.91,1600.46Zm124.15,0a33.14,33.14,0,0,1-23.91,31.78,39.16,39.16,0,0,0,.57-6.43h0v-52h23.33v26.65Z" transform="translate(-651.14 -1510.61)"/><path id="lieferheld_award-2" data-name="lieferheld award" class="cls-3" d="M794.73,1562.17v-11.71H717.14v11.71H682.27v38.29a44.8,44.8,0,0,0,40,44.48,38.92,38.92,0,0,0,22,17.74v12.41a11.62,11.62,0,0,1-11,11.16H717.14v11.64h77.59v-11.64H778.6a11.62,11.62,0,0,1-11-11.18v-12.39a38.92,38.92,0,0,0,22-17.73,44.8,44.8,0,0,0,40.13-44.49v-38.29h-35Zm-100.82,38.29v-26.65h23.23v52h0a39.14,39.14,0,0,0,.57,6.4A33.15,33.15,0,0,1,693.91,1600.46Zm124.15,0a33.14,33.14,0,0,1-23.91,31.78,39.16,39.16,0,0,0,.57-6.43h0v-52h23.33v26.65Z" transform="translate(-651.14 -1510.61)"/><path class="cls-4" d="M772.64,1575a17.32,17.32,0,0,0-19.21,4.54l-18.31,19.62a0.36,0.36,0,0,0,.17.64l4.87,0.3a0.33,0.33,0,0,1,.24.59l-11.92,12.86a0.3,0.3,0,0,0,.33.48l17-5.38a0.36,0.36,0,0,1,.48.48h0l-2.28,4h0a0.39,0.39,0,0,0,.39.52l24.55-5.47A17.31,17.31,0,0,0,772.64,1575Zm2.72,17.71,0,0-5.48,2.24-0.17.07-1.34,6.11a0.32,0.32,0,0,1-.54.08l-4-4.73h0l-22.53,9.67-0.06,0a0.15,0.15,0,0,1-.09-0.27l19.48-14.58-2.46-5.63a0.33,0.33,0,0,1,.41-0.46h0l6,1.47,4.63-4.13h0a0.32,0.32,0,0,1,.52.2l0.45,6.2,5.34,3.13A0.33,0.33,0,0,1,775.37,1592.72Z" transform="translate(-651.14 -1510.61)"/></svg>