<?xml version="1.0" encoding="utf-8"?>
<!-- Generator: Adobe Illustrator 19.2.0, SVG Export Plug-In . SVG Version: 6.00 Build 0)  -->
<svg version="1.1" id="Layer_1" xmlns="http://www.w3.org/2000/svg" xmlns:xlink="http://www.w3.org/1999/xlink" x="0px" y="0px"
	 viewBox="0 0 45 45" style="enable-background:new 0 0 45 45;" xml:space="preserve">
<style type="text/css">
	.st0{fill:#FFFFFF;}
</style>
<path class="st0" d="M34.1,7.3c-5-2-10.5-0.5-13.9,3.3L6.9,24.8C6.7,25,6.8,25.2,7,25.3l3.5,0.2c0.3,0,0.3,0.3,0.2,0.4l-8.6,9.3
	c-0.2,0.2,0,0.4,0.2,0.4l12.3-3.9c0.3-0.1,0.5,0.1,0.3,0.3l0,0L13.3,35l0,0c-0.1,0.2,0.1,0.4,0.3,0.4l17.8-4c4.2-0.7,8-3.5,9.7-7.8
	C43.7,17.1,40.5,9.8,34.1,7.3z M36,20.1C36,20.1,36,20.2,36,20.1l-4,1.6l-0.1,0.1l-1,4.4c-0.1,0.1-0.3,0.2-0.4,0.1l-2.9-3.4l0,0
	l-16.3,7c0,0,0,0,0,0c-0.1,0-0.1-0.1-0.1-0.1c0,0,0-0.1,0-0.1l14.1-10.6l-1.8-4.1c-0.1-0.2,0.1-0.4,0.3-0.3l0,0l4.3,1.1l3.4-3l0,0
	c0.1-0.1,0.3,0,0.4,0.1l0.3,4.5l3.9,2.3C36.3,19.8,36.2,20.1,36,20.1z"/>
</svg>
